<svg xmlns="http://www.w3.org/2000/svg" viewBox="0 0 32 32">
  <circle cx="16" cy="16" r="15.36" fill="#FACC15"/>
  <g transform="translate(16,16) scale(0.027143,-0.027143) translate(-334.00,-350.00)">
    <path d="M46 0V116H138V584H46V700H406Q470 700 517.5 678.5Q565 657 591.5 617.5Q618 578 618 523V513Q618 465 600.0 434.5Q582 404 557.5 387.5Q533 371 511 364V346Q533 340 559.0 323.5Q585 307 603.5 276.0Q622 245 622 195V185Q622 127 595.0 85.5Q568 44 520.5 22.0Q473 0 410 0ZM270 120H394Q437 120 463.5 141.0Q490 162 490 201V211Q490 250 464.0 271.0Q438 292 394 292H270ZM270 412H392Q433 412 459.5 433.0Q486 454 486 491V501Q486 539 460.0 559.5Q434 580 392 580H270Z" fill="#0D0D0D"/>
  </g>
</svg>
